<?xml version="1.0" encoding="UTF-8" standalone="no"?><svg xmlns="http://www.w3.org/2000/svg" xmlns:xlink="http://www.w3.org/1999/xlink" contentScriptType="application/ecmascript" contentStyleType="text/css" height="1374px" preserveAspectRatio="none" style="width:1074px;height:1374px;" version="1.1" viewBox="0 0 1074 1374" width="1074px" zoomAndPan="magnify"><defs><filter height="300%" id="f11itzd3hcbvn2" width="300%" x="-1" y="-1"><feGaussianBlur result="blurOut" stdDeviation="2.0"/><feColorMatrix in="blurOut" result="blurOut2" type="matrix" values="0 0 0 0 0 0 0 0 0 0 0 0 0 0 0 0 0 0 .4 0"/><feOffset dx="4.0" dy="4.0" in="blurOut2" result="blurOut3"/><feBlend in="SourceGraphic" in2="blurOut3" mode="normal"/></filter></defs><g><ellipse cx="544.8259" cy="18" fill="#000000" filter="url(#f11itzd3hcbvn2)" rx="10" ry="10" style="stroke: none; stroke-width: 1.0;"/><rect fill="#000000" filter="url(#f11itzd3hcbvn2)" height="8" style="stroke: none; stroke-width: 1.0;" width="80" x="277.8259" y="288"/><ellipse cx="603.8259" cy="1353" fill="none" filter="url(#f11itzd3hcbvn2)" rx="10" ry="10" style="stroke: #000000; stroke-width: 1.0;"/><ellipse cx="604.3259" cy="1353.5" fill="#000000" rx="6" ry="6" style="stroke: none; stroke-width: 1.0;"/><rect fill="#FFFFFF" filter="url(#f11itzd3hcbvn2)" height="64.2344" rx="12.5" ry="12.5" style="stroke: #383838; stroke-width: 1.5;" width="284" x="402.8259" y="89"/><line style="stroke: #383838; stroke-width: 1.5;" x1="402.8259" x2="686.8259" y1="115.2969" y2="115.2969"/><text fill="#000000" font-family="sans-serif" font-size="14" font-weight="bold" lengthAdjust="spacingAndGlyphs" textLength="72" x="508.8259" y="106.9951">Pre-Draft</text><text fill="#000000" font-family="sans-serif" font-size="12" font-weight="bold" lengthAdjust="spacingAndGlyphs" textLength="57" x="407.8259" y="131.4355">Actions:</text><text fill="#000000" font-family="sans-serif" font-size="12" lengthAdjust="spacingAndGlyphs" textLength="203" x="468.8259" y="131.4355">Define the "What" and the "Why"</text><text fill="#000000" font-family="sans-serif" font-size="12" font-weight="bold" lengthAdjust="spacingAndGlyphs" textLength="64" x="407.8259" y="145.4043">Timeline:</text><text fill="#000000" font-family="sans-serif" font-size="12" lengthAdjust="spacingAndGlyphs" textLength="57" x="475.8259" y="145.4043">unlimited</text><rect fill="#FFFFFF" filter="url(#f11itzd3hcbvn2)" height="64.2344" rx="12.5" ry="12.5" style="stroke: #383838; stroke-width: 1.5;" width="282" x="403.8259" y="260"/><line style="stroke: #383838; stroke-width: 1.5;" x1="403.8259" x2="685.8259" y1="286.2969" y2="286.2969"/><text fill="#000000" font-family="sans-serif" font-size="14" font-weight="bold" lengthAdjust="spacingAndGlyphs" textLength="39" x="525.3259" y="277.9951">Draft</text><text fill="#000000" font-family="sans-serif" font-size="12" font-weight="bold" lengthAdjust="spacingAndGlyphs" textLength="57" x="408.8259" y="302.4355">Actions:</text><text fill="#000000" font-family="sans-serif" font-size="12" lengthAdjust="spacingAndGlyphs" textLength="201" x="469.8259" y="302.4355">Discuss and polish the proposal</text><text fill="#000000" font-family="sans-serif" font-size="12" font-weight="bold" lengthAdjust="spacingAndGlyphs" textLength="64" x="408.8259" y="316.4043">Timeline:</text><text fill="#000000" font-family="sans-serif" font-size="12" lengthAdjust="spacingAndGlyphs" textLength="57" x="476.8259" y="316.4043">unlimited</text><rect fill="#FFFFFF" filter="url(#f11itzd3hcbvn2)" height="64.2344" rx="12.5" ry="12.5" style="stroke: #383838; stroke-width: 1.5;" width="353" x="427.3259" y="537"/><line style="stroke: #383838; stroke-width: 1.5;" x1="427.3259" x2="780.3259" y1="563.2969" y2="563.2969"/><text fill="#000000" font-family="sans-serif" font-size="14" font-weight="bold" lengthAdjust="spacingAndGlyphs" textLength="57" x="575.3259" y="554.9951">Review</text><text fill="#000000" font-family="sans-serif" font-size="12" font-weight="bold" lengthAdjust="spacingAndGlyphs" textLength="57" x="432.3259" y="579.4355">Actions:</text><text fill="#000000" font-family="sans-serif" font-size="12" lengthAdjust="spacingAndGlyphs" textLength="272" x="493.3259" y="579.4355">Evaluate practicality (trial implementations)</text><text fill="#000000" font-family="sans-serif" font-size="12" font-weight="bold" lengthAdjust="spacingAndGlyphs" textLength="64" x="432.3259" y="593.4043">Timeline:</text><text fill="#000000" font-family="sans-serif" font-size="12" lengthAdjust="spacingAndGlyphs" textLength="262" x="500.3259" y="593.4043">minimum 4 weeks (unless moved to Draft)</text><rect fill="#FFFFFF" filter="url(#f11itzd3hcbvn2)" height="417.2344" rx="12.5" ry="12.5" style="stroke: #383838; stroke-width: 1.5;" width="348" x="429.8259" y="708"/><rect fill="#FFFFFF" height="352" rx="12.5" ry="12.5" style="stroke: #FFFFFF; stroke-width: 1.0;" width="342" x="432.8259" y="770.2344"/><line style="stroke: #383838; stroke-width: 1.5;" x1="429.8259" x2="777.8259" y1="767.2344" y2="767.2344"/><line style="stroke: #383838; stroke-width: 1.5;" x1="429.8259" x2="777.8259" y1="734.2969" y2="734.2969"/><text fill="#000000" font-family="sans-serif" font-size="14" font-weight="bold" lengthAdjust="spacingAndGlyphs" textLength="75" x="566.3259" y="725.9951">Accepted</text><text fill="#000000" font-family="sans-serif" font-size="12" font-weight="bold" lengthAdjust="spacingAndGlyphs" textLength="57" x="434.8259" y="745.4355">Actions:</text><text fill="#000000" font-family="sans-serif" font-size="12" font-weight="bold" lengthAdjust="spacingAndGlyphs" textLength="64" x="434.8259" y="759.4043">Timeline:</text><text fill="#000000" font-family="sans-serif" font-size="12" lengthAdjust="spacingAndGlyphs" textLength="57" x="502.8259" y="759.4043">unlimited</text><rect fill="#FFFFFF" filter="url(#f11itzd3hcbvn2)" height="64.2344" rx="12.5" ry="12.5" style="stroke: #383838; stroke-width: 1.5;" width="196" x="440.8259" y="842.2344"/><line style="stroke: #383838; stroke-width: 1.5;" x1="440.8259" x2="636.8259" y1="868.5313" y2="868.5313"/><text fill="#000000" font-family="sans-serif" font-size="14" font-weight="bold" lengthAdjust="spacingAndGlyphs" textLength="157" x="460.3259" y="860.2295">Under Development</text><text fill="#000000" font-family="sans-serif" font-size="12" font-weight="bold" lengthAdjust="spacingAndGlyphs" textLength="57" x="445.8259" y="884.6699">Actions:</text><text fill="#000000" font-family="sans-serif" font-size="12" lengthAdjust="spacingAndGlyphs" textLength="115" x="506.8259" y="884.6699">Implement feature</text><text fill="#000000" font-family="sans-serif" font-size="12" font-weight="bold" lengthAdjust="spacingAndGlyphs" textLength="64" x="445.8259" y="898.6387">Timeline:</text><text fill="#000000" font-family="sans-serif" font-size="12" lengthAdjust="spacingAndGlyphs" textLength="57" x="513.8259" y="898.6387">unlimited</text><path d="M566.8259,780.2344 L566.8259,805.3672 L722.8259,805.3672 L722.8259,790.2344 L712.8259,780.2344 L566.8259,780.2344 " fill="#ECECEC" filter="url(#f11itzd3hcbvn2)" style="stroke: #383838; stroke-width: 1.0;"/><path d="M712.8259,780.2344 L712.8259,790.2344 L722.8259,790.2344 L712.8259,780.2344 " fill="#ECECEC" style="stroke: #383838; stroke-width: 1.0;"/><text fill="#000000" font-family="sans-serif" font-size="13" lengthAdjust="spacingAndGlyphs" textLength="135" x="572.8259" y="797.3013">For Feature RfCs only</text><ellipse cx="538.8259" cy="792.7344" fill="#000000" filter="url(#f11itzd3hcbvn2)" rx="10" ry="10" style="stroke: none; stroke-width: 1.0;"/><ellipse cx="538.8259" cy="1100.2344" fill="none" filter="url(#f11itzd3hcbvn2)" rx="10" ry="10" style="stroke: #000000; stroke-width: 1.0;"/><ellipse cx="539.3259" cy="1100.7344" fill="#000000" rx="6" ry="6" style="stroke: none; stroke-width: 1.0;"/><rect fill="#FFFFFF" filter="url(#f11itzd3hcbvn2)" height="64.2344" rx="12.5" ry="12.5" style="stroke: #383838; stroke-width: 1.5;" width="184" x="446.8259" y="989.2344"/><line style="stroke: #383838; stroke-width: 1.5;" x1="446.8259" x2="630.8259" y1="1015.5313" y2="1015.5313"/><text fill="#000000" font-family="sans-serif" font-size="14" font-weight="bold" lengthAdjust="spacingAndGlyphs" textLength="102" x="487.8259" y="1007.2295">Implemented</text><text fill="#000000" font-family="sans-serif" font-size="12" font-weight="bold" lengthAdjust="spacingAndGlyphs" textLength="57" x="451.8259" y="1031.6699">Actions:</text><text fill="#000000" font-family="sans-serif" font-size="12" lengthAdjust="spacingAndGlyphs" textLength="103" x="512.8259" y="1031.6699">Maintain feature</text><text fill="#000000" font-family="sans-serif" font-size="12" font-weight="bold" lengthAdjust="spacingAndGlyphs" textLength="64" x="451.8259" y="1045.6387">Timeline:</text><text fill="#000000" font-family="sans-serif" font-size="12" lengthAdjust="spacingAndGlyphs" textLength="57" x="519.8259" y="1045.6387">unlimited</text><!--MD5=[a59d5738befc783c0466ab7729458880]
link *start*Accepted to Development--><path d="M538.8259,803.0564 C538.8259,811.6766 538.8259,824.5172 538.8259,836.9287 " fill="none" id="*start*Accepted-&gt;Development" style="stroke: #383838; stroke-width: 1.0;"/><polygon fill="#383838" points="538.8259,842.208,542.8259,833.208,538.8259,837.208,534.8259,833.208,538.8259,842.208" style="stroke: #383838; stroke-width: 1.0;"/><!--MD5=[335291765f4666b9b52980a6f2b3b88f]
link Development to Implemented--><path d="M538.8259,906.4942 C538.8259,929.2803 538.8259,959.885 538.8259,983.7557 " fill="none" id="Development-&gt;Implemented" style="stroke: #383838; stroke-width: 1.0;"/><polygon fill="#383838" points="538.8259,989.0499,542.8259,980.0499,538.8259,984.0499,534.8259,980.0499,538.8259,989.0499" style="stroke: #383838; stroke-width: 1.0;"/><text fill="#000000" font-family="sans-serif" font-size="13" lengthAdjust="spacingAndGlyphs" textLength="199" x="539.8259" y="937.3013">Developed, tested and merged</text><text fill="#000000" font-family="sans-serif" font-size="13" lengthAdjust="spacingAndGlyphs" textLength="109" x="584.8259" y="952.4341">for next available</text><text fill="#000000" font-family="sans-serif" font-size="13" lengthAdjust="spacingAndGlyphs" textLength="146" x="566.3259" y="967.5669">major or minor release</text><!--MD5=[c04cf2bacbe6b63272769547d41e9e47]
link Implemented to *end*Accepted--><path d="M538.8259,1053.3667 C538.8259,1064.2625 538.8259,1075.9336 538.8259,1084.9036 " fill="none" id="Implemented-&gt;*end*Accepted" style="stroke: #383838; stroke-width: 1.0;"/><polygon fill="#383838" points="538.8259,1090.1085,542.8259,1081.1085,538.8259,1085.1085,534.8259,1081.1085,538.8259,1090.1085" style="stroke: #383838; stroke-width: 1.0;"/><rect fill="#FFFFFF" filter="url(#f11itzd3hcbvn2)" height="50.2656" rx="12.5" ry="12.5" style="stroke: #383838; stroke-width: 1.5;" width="210" x="498.8259" y="1232"/><line style="stroke: #383838; stroke-width: 1.5;" x1="498.8259" x2="708.8259" y1="1258.2969" y2="1258.2969"/><text fill="#000000" font-family="sans-serif" font-size="14" font-weight="bold" lengthAdjust="spacingAndGlyphs" textLength="92" x="557.8259" y="1249.9951">Deprecated</text><text fill="#000000" font-family="sans-serif" font-size="12" lengthAdjust="spacingAndGlyphs" textLength="190" x="503.8259" y="1274.4355">No longer considered relevant</text><rect fill="#FFFFFF" filter="url(#f11itzd3hcbvn2)" height="50.2656" rx="12.5" ry="12.5" style="stroke: #383838; stroke-width: 1.5;" width="177" x="215.3259" y="544"/><line style="stroke: #383838; stroke-width: 1.5;" x1="215.3259" x2="392.3259" y1="570.2969" y2="570.2969"/><text fill="#000000" font-family="sans-serif" font-size="14" font-weight="bold" lengthAdjust="spacingAndGlyphs" textLength="90" x="258.8259" y="561.9951">Abandoned</text><text fill="#000000" font-family="sans-serif" font-size="12" lengthAdjust="spacingAndGlyphs" textLength="157" x="220.3259" y="586.4355">Not actively worked upon</text><rect fill="#FFFFFF" filter="url(#f11itzd3hcbvn2)" height="50.2656" rx="12.5" ry="12.5" style="stroke: #383838; stroke-width: 1.5;" width="171" x="891.3259" y="405.5"/><line style="stroke: #383838; stroke-width: 1.5;" x1="891.3259" x2="1062.3259" y1="431.7969" y2="431.7969"/><text fill="#000000" font-family="sans-serif" font-size="14" font-weight="bold" lengthAdjust="spacingAndGlyphs" textLength="69" x="942.3259" y="423.4951">Rejected</text><text fill="#000000" font-family="sans-serif" font-size="12" lengthAdjust="spacingAndGlyphs" textLength="151" x="896.3259" y="447.9355">Not considered relevant</text><!--MD5=[0ab72891e842090e0c2e9aac5c6efe37]
link *start to PreDraft--><path d="M544.8259,28.2526 C544.8259,41.0511 544.8259,63.658 544.8259,83.3476 " fill="none" id="*start-&gt;PreDraft" style="stroke: #383838; stroke-width: 1.0;"/><polygon fill="#383838" points="544.8259,88.5471,548.8259,79.5471,544.8259,83.5471,540.8259,79.5471,544.8259,88.5471" style="stroke: #383838; stroke-width: 1.0;"/><!--MD5=[25360bea70f9560666c598f53a9e5eba]
link PreDraft to Draft--><path d="M544.8259,153.1638 C544.8259,182.064 544.8259,224.5007 544.8259,254.8412 " fill="none" id="PreDraft-&gt;Draft" style="stroke: #383838; stroke-width: 1.0;"/><polygon fill="#383838" points="544.8259,259.9804,548.8259,250.9804,544.8259,254.9804,540.8259,250.9804,544.8259,259.9804" style="stroke: #383838; stroke-width: 1.0;"/><text fill="#000000" font-family="sans-serif" font-size="13" font-weight="bold" lengthAdjust="spacingAndGlyphs" textLength="104" x="574.8259" y="196.0669">Entrance Vote</text><text fill="#000000" font-family="sans-serif" font-size="13" lengthAdjust="spacingAndGlyphs" textLength="162" x="545.8259" y="211.1997">Class 1,2 and 3 Members</text><text fill="#000000" font-family="sans-serif" font-size="13" font-weight="bold" lengthAdjust="spacingAndGlyphs" textLength="52" x="600.8259" y="226.3325">passes</text><!--MD5=[c1423f403d3159ea00c426c69ecc571c]
link PreDraft to Rejected--><path d="M655.3418,153.1348 C676.497,161.3955 697.9226,171.3225 716.8259,183 C817.0723,244.9274 911.0672,350.3873 953.3618,401.2954 " fill="none" id="PreDraft-&gt;Rejected" style="stroke: #383838; stroke-width: 1.0;"/><polygon fill="#383838" points="956.5614,405.1614,953.9047,395.6776,953.3735,401.3095,947.7416,400.7783,956.5614,405.1614" style="stroke: #383838; stroke-width: 1.0;"/><text fill="#000000" font-family="sans-serif" font-size="13" font-weight="bold" lengthAdjust="spacingAndGlyphs" textLength="104" x="808.8259" y="196.0669">Entrance Vote</text><text fill="#000000" font-family="sans-serif" font-size="13" lengthAdjust="spacingAndGlyphs" textLength="162" x="779.8259" y="211.1997">Class 1,2 and 3 Members</text><text fill="#000000" font-family="sans-serif" font-size="13" font-weight="bold" lengthAdjust="spacingAndGlyphs" textLength="31" x="845.3259" y="226.3325">fails</text><!--MD5=[cd4b625660801686ba67ad74f42ecb2e]
link Draft to Review--><path d="M540.08,324.207 C535.0607,367.368 530.7137,445.6435 553.8259,507 C557.1984,515.9531 562.4001,524.5955 568.196,532.441 " fill="none" id="Draft-&gt;Review" style="stroke: #383838; stroke-width: 1.0;"/><polygon fill="#383838" points="571.4692,536.7147,569.1724,527.1374,568.429,532.7452,562.8212,532.0018,571.4692,536.7147" style="stroke: #383838; stroke-width: 1.0;"/><text fill="#000000" font-family="sans-serif" font-size="13" font-weight="bold" lengthAdjust="spacingAndGlyphs" textLength="115" x="575.8259" y="420.0669">Readiness Vote</text><text fill="#000000" font-family="sans-serif" font-size="13" lengthAdjust="spacingAndGlyphs" textLength="157" x="554.8259" y="435.1997">Working Group Members</text><text fill="#000000" font-family="sans-serif" font-size="13" font-weight="bold" lengthAdjust="spacingAndGlyphs" textLength="52" x="607.3259" y="450.3325">passes</text><!--MD5=[3bba5374ad56ae2cb3c89504c820f19f]
link Review to Draft--><path d="M687.6979,536.9097 C699.3207,528.8891 709.7017,519.035 716.8259,507 C734.1455,477.742 736.3706,381.8209 716.8259,354 C709.799,343.9975 691.431,334.4016 669.1822,325.8731 " fill="none" id="Review-&gt;Draft" style="stroke: #383838; stroke-width: 1.0;"/><polygon fill="#383838" points="664.3783,324.0696,671.3983,330.9775,669.0593,325.8269,674.21,323.4879,664.3783,324.0696" style="stroke: #383838; stroke-width: 1.0;"/><text fill="#000000" font-family="sans-serif" font-size="13" lengthAdjust="spacingAndGlyphs" textLength="98" x="745.8259" y="427.5669">Proposal needs</text><text fill="#000000" font-family="sans-serif" font-size="13" lengthAdjust="spacingAndGlyphs" textLength="128" x="730.8259" y="442.6997">substantial changes</text><!--MD5=[038eaace8393b6500030033c40082938]
link Review to Accepted--><path d="M603.8259,601.0691 C603.8259,625.9129 603.8259,662.7144 603.8259,702.4952 " fill="none" id="Review-&gt;Accepted" style="stroke: #383838; stroke-width: 1.0;"/><polygon fill="#383838" points="603.8259,707.8706,607.8259,698.8706,603.8259,702.8706,599.8259,698.8706,603.8259,707.8706" style="stroke: #383838; stroke-width: 1.0;"/><text fill="#000000" font-family="sans-serif" font-size="13" font-weight="bold" lengthAdjust="spacingAndGlyphs" textLength="125" x="644.8259" y="644.0669">Acceptance Vote</text><text fill="#000000" font-family="sans-serif" font-size="13" lengthAdjust="spacingAndGlyphs" textLength="205" x="604.8259" y="659.1997">Production Department Leaders</text><text fill="#000000" font-family="sans-serif" font-size="13" font-weight="bold" lengthAdjust="spacingAndGlyphs" textLength="52" x="681.3259" y="674.3325">passes</text><!--MD5=[c78fd9563842136d9e9f0db2f8269cbe]
link Accepted to Deprecated--><path d="M603.8259,1125.3538 C603.8259,1165.1946 603.8259,1202.0582 603.8259,1226.5804 " fill="none" id="Accepted-&gt;Deprecated" style="stroke: #383838; stroke-width: 1.0;"/><polygon fill="#383838" points="603.8259,1231.6224,607.8259,1222.6224,603.8259,1226.6224,599.8259,1222.6224,603.8259,1231.6224" style="stroke: #383838; stroke-width: 1.0;"/><text fill="#000000" font-family="sans-serif" font-size="13" font-weight="bold" lengthAdjust="spacingAndGlyphs" textLength="129" x="642.8259" y="1168.0669">Deprecation Vote</text><text fill="#000000" font-family="sans-serif" font-size="13" lengthAdjust="spacingAndGlyphs" textLength="205" x="604.8259" y="1183.1997">Production Department Leaders</text><text fill="#000000" font-family="sans-serif" font-size="13" font-weight="bold" lengthAdjust="spacingAndGlyphs" textLength="52" x="681.3259" y="1198.3325">passes</text><!--MD5=[3921763f477b635b0fde189e6a2d353c]
link O to Abandoned--><path d="M277.7706,294.8599 C207.6979,300.7866 67.4752,317.0674 37.8259,354 C-4.7436,407.0267 -4.4491,453.7382 37.8259,507 C59.2665,534.0128 142.2217,550.3451 209.8635,559.4131 " fill="none" id="O-&gt;Abandoned" style="stroke: #383838; stroke-width: 1.0;"/><polygon fill="#383838" points="215.1176,560.107,206.719,554.9627,210.1607,559.4521,205.6712,562.8938,215.1176,560.107" style="stroke: #383838; stroke-width: 1.0;"/><text fill="#000000" font-family="sans-serif" font-size="13" lengthAdjust="spacingAndGlyphs" textLength="31" x="137.8259" y="367.0669">After</text><text fill="#000000" font-family="sans-serif" font-size="13" lengthAdjust="spacingAndGlyphs" textLength="100" x="103.3259" y="382.1997">60 days without</text><text fill="#000000" font-family="sans-serif" font-size="13" lengthAdjust="spacingAndGlyphs" textLength="111" x="97.8259" y="397.3325">Editor or Sponsor</text><text fill="#000000" font-family="sans-serif" font-size="13" lengthAdjust="spacingAndGlyphs" textLength="170" x="68.3259" y="412.4653">or 6 month without activity</text><text fill="#000000" font-family="sans-serif" font-size="13" lengthAdjust="spacingAndGlyphs" textLength="229" x="38.8259" y="427.5981">Production Department Coordinator</text><text fill="#000000" font-family="sans-serif" font-size="13" lengthAdjust="spacingAndGlyphs" textLength="57" x="124.8259" y="442.731">can start</text><text fill="#000000" font-family="sans-serif" font-size="13" lengthAdjust="spacingAndGlyphs" textLength="0" x="155.3259" y="457.8638"/><text fill="#000000" font-family="sans-serif" font-size="13" font-weight="bold" lengthAdjust="spacingAndGlyphs" textLength="143" x="81.8259" y="472.9966">Abandonment Vote</text><text fill="#000000" font-family="sans-serif" font-size="13" lengthAdjust="spacingAndGlyphs" textLength="162" x="72.3259" y="488.1294">Class 1,2 and 3 Members</text><text fill="#000000" font-family="sans-serif" font-size="13" font-weight="bold" lengthAdjust="spacingAndGlyphs" textLength="52" x="127.3259" y="503.2622">passes</text><!--MD5=[933d1ef734b17efa0f9ac08729a8e730]
link PreDraft to O--><path d="M502.129,153.1638 C447.7577,194.1218 357.2941,262.2685 327.598,284.6387 " fill="none" id="PreDraft-&gt;O" style="stroke: #383838; stroke-width: 1.0;"/><polygon fill="#383838" points="323.3685,287.8247,332.9638,285.6041,327.3621,284.8161,328.1501,279.2144,323.3685,287.8247" style="stroke: #383838; stroke-width: 1.0;"/><!--MD5=[25de982996b24816aba0fe099b060a3f]
reverse link O to Draft--><path d="M363.5118,292 C376.9217,292 390.3316,292 403.7415,292 " fill="none" id="O&lt;-Draft" style="stroke: #383838; stroke-width: 1.0;"/><polygon fill="#383838" points="358.1716,292,367.1716,296,363.1716,292,367.1716,288,358.1716,292" style="stroke: #383838; stroke-width: 1.0;"/><!--MD5=[69702f1343112748d259489ad8537f9a]
reverse link O to Review--><path d="M314.2923,300.8733 C302.1857,332.8823 265.8571,443.8448 316.8259,507 C325.0496,517.1899 372.9063,529.188 427.2564,539.9012 " fill="none" id="O&lt;-Review" style="stroke: #383838; stroke-width: 1.0;"/><polygon fill="#383838" points="316.1286,296.1353,309.1463,303.0814,314.3216,300.7973,316.6056,305.9726,316.1286,296.1353" style="stroke: #383838; stroke-width: 1.0;"/><!--MD5=[d14c19af4bb34b60237d7dc610ceaa04]
reverse link Draft to Abandoned--><path d="M399.8732,326.5893 C386.5322,334.017 374.1696,343.0397 363.8259,354 C313.4227,407.4078 304.763,499.5556 303.6652,543.8254 " fill="none" id="Draft&lt;-Abandoned" style="stroke: #383838; stroke-width: 1.0;"/><polygon fill="#383838" points="404.4335,324.1309,394.6132,324.8807,400.0323,326.5036,398.4095,331.9226,404.4335,324.1309" style="stroke: #383838; stroke-width: 1.0;"/><text fill="#000000" font-family="sans-serif" font-size="13" font-weight="bold" lengthAdjust="spacingAndGlyphs" textLength="104" x="393.8259" y="412.5669">Entrance Vote</text><text fill="#000000" font-family="sans-serif" font-size="13" lengthAdjust="spacingAndGlyphs" textLength="162" x="364.8259" y="427.6997">Class 1,2 and 3 Members</text><text fill="#000000" font-family="sans-serif" font-size="13" font-weight="bold" lengthAdjust="spacingAndGlyphs" textLength="52" x="419.8259" y="442.8325">passes</text><text fill="#000000" font-family="sans-serif" font-size="13" lengthAdjust="spacingAndGlyphs" textLength="71" x="410.3259" y="457.9653">(only once)</text><!--MD5=[d437404ea70f09638a39368955b1d0ae]
link Abandoned to *end--><path d="M306.7469,594.148 C316.3895,673.5253 350.2158,925.3134 412.8259,1125 C435.6293,1197.7282 431.0595,1225.148 481.8259,1282 C512.608,1316.472 564.2442,1338.6853 589.3049,1347.9939 " fill="none" id="Abandoned-&gt;*end" style="stroke: #383838; stroke-width: 1.0;"/><polygon fill="#383838" points="594.2321,1349.7842,587.1392,1342.9511,589.5327,1348.0766,584.4072,1350.4701,594.2321,1349.7842" style="stroke: #383838; stroke-width: 1.0;"/><text fill="#000000" font-family="sans-serif" font-size="13" lengthAdjust="spacingAndGlyphs" textLength="73" x="460.8259" y="1175.5669">Abandoned</text><text fill="#000000" font-family="sans-serif" font-size="13" lengthAdjust="spacingAndGlyphs" textLength="125" x="434.8259" y="1190.6997">for the second time</text><!--MD5=[abc944e3d7b972bf77e0040747d61027]
link Deprecated to *end--><path d="M603.8259,1282.2229 C603.8259,1299.8366 603.8259,1322.7774 603.8259,1337.6928 " fill="none" id="Deprecated-&gt;*end" style="stroke: #383838; stroke-width: 1.0;"/><polygon fill="#383838" points="603.8259,1342.8002,607.8259,1333.8002,603.8259,1337.8002,599.8259,1333.8002,603.8259,1342.8002" style="stroke: #383838; stroke-width: 1.0;"/><!--MD5=[275b679d9522866ba41d4dbf575c856d]
link Rejected to *end--><path d="M967.7975,455.654 C953.8931,496.7074 928.8259,580.9223 928.8259,654.5 C928.8259,654.5 928.8259,654.5 928.8259,1257 C928.8259,1322.391 683.7801,1346.6036 619.247,1351.8462 " fill="none" id="Rejected-&gt;*end" style="stroke: #383838; stroke-width: 1.0;"/><polygon fill="#383838" points="613.9089,1352.2697,623.1971,1355.5451,618.8932,1351.8741,622.5642,1347.5702,613.9089,1352.2697" style="stroke: #383838; stroke-width: 1.0;"/><!--MD5=[4021ac4ba8f20e3b40d985c88c850d89]
@startuml
skinparam monochrome true
skinparam state {
    BackgroundColor White
}

[*] - -> PreDraft

state PreDraft as "**Pre-Draft**" {
}

state Draft as "**Draft**" {
}

state Review as "**Review**" {
}

state Accepted as "**Accepted**" {
    state "**Under Development**" as Development
    state Implemented as "**Implemented**" {
    }

    Development: **Actions:** Implement feature
    Development: **Timeline:** unlimited

    Implemented: **Actions:** Maintain feature
    Implemented: **Timeline:** unlimited

    note "For Feature RfCs only" as N1
    [*] - -> Development
    Development - -> Implemented: Developed, tested and merged\nfor next available\nmajor or minor release
    Implemented - -> [*]
}

state Deprecated as "**Deprecated**" {
}

state Abandoned as "**Abandoned**" {
}

state Rejected as "**Rejected**" {
}

state O <<join>>


PreDraft - -> Draft: **Entrance Vote**\nClass 1,2 and 3 Members\n**passes**
PreDraft - -> Rejected: **Entrance Vote**\nClass 1,2 and 3 Members\n**fails**

Draft - -> Review: **Readiness Vote**\nWorking Group Members\n**passes**

Review - -> Draft: Proposal needs\nsubstantial changes
Review - -> Accepted: **Acceptance Vote**\nProduction Department Leaders\n**passes**

Accepted - -> Deprecated: **Deprecation Vote**\nProduction Department Leaders\n**passes**


O - -> Abandoned: After\n60 days without\nEditor or Sponsor\nor 6 month without activity\nProduction Department Coordinator\ncan start\n\n**Abandonment Vote**\nClass 1,2 and 3 Members\n**passes**

PreDraft -> O
Draft -left-> O
Review -left-> O

Abandoned -up-> Draft: **Entrance Vote**\nClass 1,2 and 3 Members\n**passes**\n(only once)

Abandoned - -> [*]: Abandoned\nfor the second time
Deprecated - -> [*]
Rejected - -> [*]

PreDraft: **Actions:** Define the "What" and the "Why"
PreDraft: **Timeline:** unlimited

Draft: **Actions:** Discuss and polish the proposal
Draft: **Timeline:** unlimited

Review: **Actions:** Evaluate practicality (trial implementations)
Review: **Timeline:** minimum 4 weeks (unless moved to Draft)

Accepted: **Actions:**
Accepted: **Timeline:** unlimited

Abandoned: Not actively worked upon
Deprecated: No longer considered relevant
Rejected: Not considered relevant

@enduml

PlantUML version 1.2020.03beta6(Unknown compile time)
(GPL source distribution)
Java Runtime: OpenJDK Runtime Environment
JVM: OpenJDK 64-Bit Server VM
Java Version: 11.0.6+8-b520.43
Operating System: Linux
Default Encoding: UTF-8
Language: de
Country: DE
--></g></svg>